<svg id="Layer_1" data-name="Layer 1" xmlns="http://www.w3.org/2000/svg" viewBox="0 0 164.1 39.88" class="popmake-712"><defs><style>.cls-1{fill:#231f20;}</style></defs><path class="cls-1" d="M-1324.39,1043.72c-1.58-1.86-6.91-2.37-9.14-2.79-1.7-.32-3.67-.21-5.45-.5-.87-.14-4.55-1.9-5.09-1a.44.44,0,0,0-.09.18.41.41,0,0,0,0,.29s0,0,0,.06a43.18,43.18,0,0,0,1.81,7.42c-10.75,3.71-21.43,8-32.4,10.82a231.86,231.86,0,0,1-26,5l-3.26.46-3.27.37-6.54.74c-4.37.37-8.72.85-13.08,1.11-4.22.41-8.44.55-12.66.86l-6.34.21-3.17.1-3.17,0c-2.11,0-4.23,0-6.34-.09l-6.34-.39a38.9,38.9,0,0,1-12.08-2.32,15.09,15.09,0,0,1-4.63-2.8,10.15,10.15,0,0,1-2.81-4.23c-1.11-3.13-.23-6.59,1.49-9.53,3.32-5.92,10.27-9.28,16.25-14.66a1.25,1.25,0,0,0-1.52-2c-3.59,2.34-7.34,4.42-10.74,7a29.92,29.92,0,0,0-4.69,4.31,21.48,21.48,0,0,0-3.42,5.43,15.87,15.87,0,0,0-1.36,6.43,12.89,12.89,0,0,0,1.87,6.54,15.27,15.27,0,0,0,4.87,4.89,23.75,23.75,0,0,0,6.13,2.77,42.71,42.71,0,0,0,6.52,1.36c2.19.31,4.32.37,6.48.55,4.3.38,8.61.33,12.91.39,2.16,0,4.31-.13,6.45-.18l3.23-.1,3.21-.22,6.43-.41q3.21-.3,6.42-.56c8.39-.76,16.79-1.56,25.14-2.81,4.19-.55,8.34-1.31,12.5-2,2.08-.38,4.14-.84,6.21-1.27s4.13-.89,6.17-1.42a289,289,0,0,0,33.1-10c.28.66.57,1.32.88,2,.69,1.46,1.1,3.41,2.4,3.53a2.12,2.12,0,0,0,1-.24c1.87-.91,3.65-3.34,5.12-4.79C-1330.59,1051.34-1323.46,1044.81-1324.39,1043.72Z" transform="translate(1488.41 -1030.72)"></path></svg>